PathFileType	4	(X/Y/Z)	C:/Users/opensim2020/Desktop/walking_exp_matlab/subject01_walking07_straight_02.trc																																																																																																																															
DataRate	CameraRate	NumFrames	NumMarkers	Units	OrigDataRate	OrigDataStartFrame	OrigNumFrames																																																																																																																											
100	100	8	43	mm	100	1495	178																																																																																																																											
Frame#	Time	LFHD			RFHD			LBHD			RBHD			C7			T10			CLAV			STRN			RBAK			LSHO			LUPA			LELB			LFRM			LWRA			LWRB			LFIN			RSHO			RUPA			RELB			RFRM			RWRA			RWRB			RFIN			LASI			RASI			LPSI			RPSI			LTHI			LKNE			LTIB			LANK			LHEE			LTOE			RTHI			RKNE			RTIB			RANK			RHEE			RTOE			*39			*40			*41			*42		
		X1	Y1	Z1	X2	Y2	Z2	X3	Y3	Z3	X4	Y4	Z4	X5	Y5	Z5	X6	Y6	Z6	X7	Y7	Z7	X8	Y8	Z8	X9	Y9	Z9	X10	Y10	Z10	X11	Y11	Z11	X12	Y12	Z12	X13	Y13	Z13	X14	Y14	Z14	X15	Y15	Z15	X16	Y16	Z16	X17	Y17	Z17	X18	Y18	Z18	X19	Y19	Z19	X20	Y20	Z20	X21	Y21	Z21	X22	Y22	Z22	X23	Y23	Z23	X24	Y24	Z24	X25	Y25	Z25	X26	Y26	Z26	X27	Y27	Z27	X28	Y28	Z28	X29	Y29	Z29	X30	Y30	Z30	X31	Y31	Z31	X32	Y32	Z32	X33	Y33	Z33	X34	Y34	Z34	X35	Y35	Z35	X36	Y36	Z36	X37	Y37	Z37	X38	Y38	Z38	X39	Y39	Z39	X40	Y40	Z40	X41	Y41	Z41	X42	Y42	Z42	X43	Y43	Z43
																																																																																																																																		
67	0.66	-335.42462	1674.16345	987.96082	-303.5835	1681.26489	1098.90393	-448.08725	1628.30847	1016.42883	-418.36624	1635.53394	1134.00854	-479.72351	1436.72668	1051.2218	-518.32971	1144.59985	1058.50476	-336.94086	1368.03992	1052.85913	-295.58118	1212.41846	1049.25562	-536.34869	1245.40173	1126.78418	-394.63315	1398.14038	891.26324	-403.27982	1213.75842	803.76544	-392.95825	1060.63538	798.22308	-319.26071	970.97974	774.49353	-205.76598	891.23914	796.86768	-253.6286	867.96332	768.73334	-183.06676	821.1214	762.64063	-398.01987	1400.39905	1204.69885	-486.04022	1207.98804	1296.25903	-502.13925	1085.70422	1297.2085	-501.315	966.61688	1330.13269	-446.55988	835.29553	1317.88892	-491.93039	845.69385	1353.83936	-475.0578	758.31934	1346.05676	-350.93011	934.86182	953.16754	-349.15723	943.06708	1169.30139	-535.44092	946.88708	1010.83423	-530.49408	948.14551	1156.89478	-408.12933	600.94507	911.48376	-431.80258	467.02997	931.27307	-500.4632	289.00342	930.05518	-545.87115	77.04515	992.53906	-591.25195	50.90254	1046.80591	-400.3157	36.02747	983.79236	-296.46365	626.61646	1238.9657	-247.53745	475.04633	1217.2616	-339.96283	323.1875	1221.9447	-412.51413	129.51663	1178.07288	-461.85385	100.7366	1121.07373	-293.38281	54.49931	1195.49316	-319.55426	1714.70667	1077.97302	-1972.99231	1023.90503	3102.27612	-2012.61475	1022.01251	3140.59375	NaN	NaN	NaN
68	0.67	-326.02914	1673.88794	988.79346	-294.26938	1680.87305	1099.65491	-438.69821	1627.85278	1017.10535	-409.05392	1634.91418	1134.68298	-469.97833	1436.21826	1051.57104	-508.68716	1144.19739	1058.3717	-327.13205	1367.5188	1053.25964	-285.89114	1211.77368	1049.55896	-526.78198	1244.82507	1126.69934	-384.62869	1397.87	891.71246	-392.67902	1213.71692	804.04718	-381.41916	1060.66223	797.60718	-305.77408	972.37958	774.07458	-190.41052	895.31567	796.23572	-237.84921	870.87262	768.36395	-166.1205	825.68628	762.08923	-388.51288	1399.79517	1205.34082	-477.41727	1207.40088	1296.15051	-494.12424	1085.27905	1296.81262	-494.38522	966.2829	1329.67212	-440.57764	834.31409	1317.64917	-486.14871	845.17462	1353.49146	-469.83591	757.75793	1345.77271	-342.09949	933.84241	953.08502	-339.55411	942.74243	1169.44958	-526.43799	946.11389	1011.21912	-521.06061	947.64526	1157.22168	-402.18954	600.50134	911.98206	-427.92758	466.73294	931.40466	-498.32254	289.53113	930.40546	-545.38934	77.68374	992.65863	-590.99982	51.98979	1047.00952	-400.11124	35.90232	983.81433	-286.50662	626.58923	1239.08093	-237.62402	475.0455	1217.37915	-321.47437	317.86444	1222.82629	-381.6535	120.11728	1179.42004	-429.12622	88.18164	1122.78076	-258.32562	53.01551	1197.43347	-310.35068	1714.2113	1078.80225	-1973.19629	1023.42603	3101.99878	-2012.58984	1022.0304	3140.64624	NaN	NaN	NaN
69	0.68	-316.53693	1673.53101	989.70459	-284.87634	1680.33191	1100.48401	-429.18198	1627.3136	1017.78851	-399.61591	1634.23865	1135.40479	-460.14539	1435.63611	1051.88342	-499.05957	1143.71423	1058.44556	-317.32895	1366.92749	1053.79651	-276.16882	1211.1073	1049.88696	-517.06854	1244.1897	1126.57544	-374.48746	1397.59094	892.24347	-381.68405	1213.68677	803.97131	-369.97058	1060.62378	797.35834	-292.6109	973.67664	773.77716	-175.54901	899.25085	795.73602	-222.54643	873.70929	767.89215	-149.85428	830.0528	761.59076	-378.93573	1398.95703	1205.90552	-468.66223	1206.74451	1296.15637	-485.94699	1084.76758	1296.58643	-487.18176	965.78766	1329.31921	-434.23508	833.47095	1317.57971	-479.72083	844.58405	1352.96655	-464.19745	757.14618	1345.5686	-333.08841	932.87512	953.07465	-329.77292	942.2392	1169.62317	-517.31244	945.54767	1011.77423	-511.59158	947.06433	1157.57166	-396.05414	599.89746	912.49719	-424.13193	466.48819	931.62006	-496.21524	290.15457	930.78015	-544.83044	78.39115	992.78168	-590.55786	53.36777	1047.39697	-400.28754	35.7403	983.78271	-277.1857	626.0683	1239.24268	-228.3035	474.34	1217.53296	-302.76932	312.56912	1223.91626	-350.49008	111.35875	1180.9364	-396.24512	76.45412	1124.56506	-222.93079	52.3051	1199.09912	-300.95612	1713.74219	1079.7467	-1973.18994	1023.27625	3101.91626	-2012.60107	1022.0636	3140.51001	NaN	NaN	NaN
70	0.69	-307.09604	1672.97058	990.48065	-275.49548	1679.80957	1101.44885	-419.65555	1626.64624	1018.58301	-390.18042	1633.48926	1136.23914	-450.31183	1435.00098	1052.36206	-489.46786	1143.18958	1058.68713	-307.42871	1366.25256	1054.36047	-266.42047	1210.35974	1050.26709	-507.33664	1243.52783	1126.61389	-364.42819	1397.14185	892.84021	-371.1087	1213.52759	804.30518	-358.71695	1060.36487	797.20587	-279.54868	975.04724	773.53619	-161.11363	902.99664	795.28351	-207.75946	876.42078	767.46063	-133.9411	834.37689	761.14813	-369.28348	1398.1499	1206.51306	-459.73569	1206.0437	1296.47668	-477.57767	1084.17749	1296.44568	-479.72385	965.23096	1329.0824	-427.63046	832.60217	1317.54907	-473.52335	844.1792	1352.81006	-458.17407	756.45508	1345.42664	-323.98624	931.96796	953.13727	-319.79865	941.61914	1169.75867	-507.83121	945.14075	1012.46796	-501.82425	946.57617	1158.1106	-389.88892	599.44263	912.97742	-420.51675	466.6752	931.78333	-494.13083	290.9382	931.07129	-544.54865	79.47039	993.01459	-590.33716	54.63807	1047.47424	-400.21857	35.82124	983.58032	-268.52432	624.93854	1239.72534	-219.57204	473.20059	1217.65735	-284.17093	307.73444	1225.40686	-318.74921	103.44003	1183.14172	-362.95178	65.78863	1126.65674	-187.72351	52.25282	1200.32629	-291.54727	1713.31018	1080.75171	-1973.01379	1023.33679	3101.87939	-2012.66101	1022.12073	3140.6416	NaN	NaN	NaN
71	0.7	-297.53458	1672.44421	991.43842	-265.98975	1679.14197	1102.43359	-410.05746	1625.95215	1019.40723	-380.67593	1632.62878	1137.04504	-440.38806	1434.2876	1052.96814	-479.70502	1142.63245	1059.15601	-297.53867	1365.49475	1055.04626	-256.58804	1209.54565	1050.65234	-497.64108	1242.75171	1126.72009	-354.32483	1396.68042	893.56055	-360.36014	1213.27979	804.62799	-347.70255	1060.06335	797.30267	-267.1619	975.98029	773.48035	-147.20403	906.53094	794.87683	-193.3582	878.98584	767.19299	-118.64763	838.62567	760.67218	-359.56442	1397.06592	1206.93042	-450.76984	1205.15576	1296.41333	-469.01541	1083.49792	1296.42883	-471.93622	964.58551	1329.00232	-420.63293	831.68457	1317.55823	-466.37704	843.39893	1352.53357	-451.7135	755.73645	1345.32214	-314.85373	931.0686	953.1709	-309.57025	940.79138	1169.94446	-498.39069	944.65424	1013.33954	-491.97491	946.10034	1158.76282	-383.69077	599.03339	913.47308	-416.22836	466.48355	931.93054	-492.07614	291.88226	931.32147	-543.49591	80.18706	993.40704	-589.65808	56.2099	1047.9436	-400.29868	35.82119	983.72437	-260.69727	623.1618	1239.93872	-211.24797	471.83276	1218.15417	-265.67804	303.53104	1227.08948	-286.85895	96.63799	1185.11621	-329.65347	57.05674	1129.36475	-152.52724	52.9868	1200.64807	-282.08337	1712.6051	1081.79407	-1973.09265	1023.52271	3102.00757	-2012.50525	1022.06885	3140.80933	NaN	NaN	NaN
72	0.71	-287.80646	1672.04736	992.81781	-256.46899	1678.40747	1103.5752	-400.43317	1625.16663	1020.33582	-371.1402	1631.75024	1138.05859	-430.53439	1433.52087	1053.6814	-469.87881	1141.82361	1059.75476	-287.59482	1364.70203	1055.79858	-246.72368	1208.66309	1051.13025	-487.85712	1241.91479	1127.02344	-344.19733	1396.10547	894.3208	-350.05734	1213.00623	805.22675	-337.06146	1059.82092	797.29468	-255.05806	976.97113	773.39484	-133.65543	909.89526	794.50555	-179.23563	881.35107	767.12738	-103.75264	842.48798	760.31696	-349.7782	1396.10913	1207.62048	-441.6929	1204.29541	1296.72717	-460.31134	1082.77393	1296.57202	-463.9455	963.88379	1329.01941	-413.26599	830.6803	1317.67883	-459.14569	842.67377	1352.64343	-444.83524	754.9339	1345.39832	-305.54803	930.34711	953.29663	-299.15063	939.82294	1170.10376	-488.71371	944.17816	1014.20898	-481.8981	945.54883	1159.48022	-377.40634	598.75745	913.8844	-412.16992	466.70279	932.03937	-490.01379	292.83423	931.39539	-543.13953	81.56879	993.5575	-589.2475	57.87036	1048.25989	-399.92163	35.84991	983.68164	-253.63647	620.91333	1240.56104	-203.22272	470.31836	1218.6134	-247.33275	299.86566	1228.7854	-255.02921	91.19337	1187.22302	-296.77444	49.78767	1132.18188	-117.832	54.89489	1199.82983	-272.64377	1711.75256	1082.797	-1973.05713	1023.38507	3101.85791	-2012.6322	1022.12018	3140.61523	NaN	NaN	NaN
73	0.72	-278.04218	1671.245	994.08899	-246.87755	1677.52246	1104.78088	-390.69812	1624.33118	1021.31079	-361.52493	1630.77148	1139.0835	-420.61459	1432.60742	1054.41187	-460.04694	1141.02209	1060.69739	-277.70718	1363.78003	1056.57129	-236.81154	1207.79028	1051.65137	-477.97049	1240.98242	1127.53674	-334.09778	1395.44348	895.19635	-339.43497	1212.57507	805.75311	-326.47009	1059.29724	797.63409	-243.09973	977.8761	773.54791	-120.68201	912.93677	794.21173	-165.84084	883.57153	766.88025	-89.47251	846.28284	759.84204	-340.01654	1395.29114	1208.71606	-432.49731	1203.35156	1297.1095	-451.30734	1081.93604	1296.81848	-455.51917	963.13422	1329.33447	-405.56729	829.67267	1317.86865	-451.6843	841.9339	1352.71277	-437.52875	754.10815	1345.526	-296.11621	929.63245	953.40118	-288.46408	938.74536	1170.30579	-478.91324	943.75305	1015.2381	-471.83707	944.99414	1160.44336	-371.13165	598.6145	914.20532	-407.7475	466.80917	932.07642	-487.37881	293.9057	931.83002	-542.80804	82.96565	993.84894	-588.8302	59.80758	1048.60168	-399.79932	35.80549	983.6991	-247.32648	618.31873	1241.0481	-195.26666	468.70065	1219.11475	-229.47241	296.88098	1230.36597	-224.48424	87.24104	1189.51636	-264.30511	43.80034	1135.58081	-84.70422	58.26413	1198.86829	-263.02856	1711.01624	1084.177	-1973.15479	1023.88031	3102.06543	-2012.52673	1021.93243	3140.61084	NaN	NaN	NaN
74	0.73	-268.37247	1670.35315	995.11865	-237.19379	1676.63098	1106.06763	-380.94583	1623.46057	1022.47394	-351.86252	1629.76917	1140.2113	-410.73135	1431.69189	1055.3866	-450.10309	1140.13538	1061.82874	-267.74948	1362.82996	1057.48804	-226.82855	1206.86304	1052.31824	-468.07965	1239.91541	1128.18262	-324.07739	1394.71643	896.15918	-329.31512	1212.07092	806.63379	-316.09286	1058.60608	798.12549	-231.8782	978.44037	773.70892	-108.12557	915.75708	793.97223	-152.75722	885.49481	766.97742	-75.79743	849.65784	759.49146	-330.18729	1394.04749	1209.41284	-423.19159	1202.38184	1297.58813	-442.1691	1081.0863	1297.24963	-446.89886	962.29193	1329.65356	-397.44904	828.61896	1318.11011	-443.53033	841.09717	1353.03821	-429.78284	753.14124	1345.68677	-286.55701	929.02686	953.51208	-277.6709	937.49347	1170.51196	-468.89777	943.27136	1016.45508	-461.10895	944.29364	1161.38562	-364.78467	598.55145	914.38141	-403.07181	467.13907	932.03101	-484.93872	295.06589	931.97095	-542.21527	84.58611	993.99951	-588.20905	61.89803	1048.94226	-399.83984	35.91452	983.6532	-241.65977	615.56708	1241.9895	-187.11063	467.08798	1219.43896	-211.63646	294.43985	1231.88635	-195.18556	84.97281	1191.74719	-233.47166	39.07607	1138.71948	-53.26183	63.55653	1197.86328	-253.34152	1710.12024	1085.44019	-1973.10486	1023.7171	3101.87769	-2012.61816	1022.09369	3140.49365	NaN	NaN	NaN
